<svg xmlns="http://www.w3.org/2000/svg"><style>:root svg:not(:target){display:none}</style><svg viewBox="0 0 27 31" fill="none" id="alarm"><path d="M6.12 0c-1.07 0-1.07 1.58 0 1.58h6.67v1.6a13.21 13.21 0 0 0-12.23 13.3c0 4.02 1.75 7.64 4.52 10.07.48.43.54 1.18.1 1.64l-1.53 1.55c-.75.69.36 1.75 1.03 1l2-2.03c.36-.34.88-.43 1.32-.21a12.79 12.79 0 0 0 11.1.06c.43-.21.96-.13 1.3.21l1.95 1.97c.68.64 1.66-.31 1.04-1l-1.45-1.48c-.45-.45-.38-1.2.1-1.63a13.47 13.47 0 0 0 4.62-10.16 13.2 13.2 0 0 0-12.27-13.28v-1.6h6.67c1.06 0 1.06-1.59 0-1.59h-14.94Zm-4.12 16.47c0-6.53 5.2-11.82 11.6-11.82 6.41 0 11.6 5.3 11.6 11.82 0 6.55-5.19 11.85-11.6 11.85-6.4 0-11.6-5.3-11.6-11.85Zm10.8-8.09c0-1.1 1.66-1.1 1.66 0v8.63c0 .23-.09.44-.25.6a.86.86 0 0 1-.6.25.82.82 0 0 1-.57-.23.8.8 0 0 1-.24-.56v-8.69Zm-5 2.62c.31 0 .61-.12.83-.34a1.14 1.14 0 0 0-.82-1.96c-.3.02-.56.16-.75.37a1.14 1.14 0 0 0 .75 1.92Zm11.6 0c.31 0 .6-.12.82-.34a1.14 1.14 0 0 0-.82-1.96 1.14 1.14 0 0 0 0 2.29Zm-10.43 12.59c0 1.53-2.33 1.53-2.33 0s2.33-1.53 2.33 0Zm4.64 3.44a1.18 1.18 0 0 0 1.17-.68 1.14 1.14 0 0 0-.7-1.56 1.17 1.17 0 0 0-1.22.32 1.14 1.14 0 0 0 .75 1.92Zm-8.12-10.39a1.14 1.14 0 0 1-.69 1.17 1.17 1.17 0 0 1-1.57-.7 1.14 1.14 0 0 1 .32-1.2 1.17 1.17 0 0 1 1.94.73Zm17.39 1.15a1.17 1.17 0 0 0 1.17-.68 1.14 1.14 0 0 0-.7-1.55 1.17 1.17 0 0 0-1.22.32 1.14 1.14 0 0 0 .75 1.91Zm-2.32 5.8c0 1.53-2.32 1.53-2.32 0s2.32-1.53 2.32 0Z" fill="#fff"></path></svg><svg viewBox="0 0 24 12" fill="none" id="arrow"><path stroke="#000" stroke-width="2" d="M0 6h18"></path><path d="m24 6-6.75 5.2v-10.4l6.75 5.2Z" fill="#000"></path></svg><svg viewBox="0 0 24 24" fill="none" id="button-menu"><path stroke="#000" stroke-width="2" d="M0 3h24m-24 8h24m-24 8h24"></path></svg><svg viewBox="0 0 40 40" id="button-slider"><path d="m16 11-8 9 8 9v-18Zm16 9-8-9v18l8-9Z" fill="#666"></path></svg><svg viewBox="0 0 140 140" id="cat-going"><circle cx="70" cy="70" r="50" fill="#68B738"></circle><path d="M124.118 45.7569C125.273 43.9199 126.807 42.3515 128.618 41.1569C129.618 40.4569 130.218 40.4569 130.818 41.7569C131.618 43.6569 132.318 45.6569 131.718 47.7569C131.609 48.113 131.588 48.4904 131.658 48.8564C131.728 49.2223 131.886 49.5658 132.118 49.8569C132.718 50.6569 133.218 51.4569 133.718 52.1569C134.399 53.0206 134.84 54.0482 134.998 55.1364C135.156 56.2246 135.025 57.3352 134.618 58.3569C134.251 59.3487 134.182 60.4261 134.418 61.4569C134.618 62.4469 134.618 63.4668 134.418 64.4569C134.337 65.1983 134.037 65.8987 133.556 66.4688C133.075 67.0388 132.435 67.4524 131.718 67.6569C130.439 67.9002 129.298 68.6137 128.518 69.6569C128.424 69.8105 128.291 69.9372 128.134 70.0247C127.976 70.1123 127.799 70.1578 127.618 70.1569C126.418 70.3569 123.418 67.6569 123.418 66.4569V65.8569C123.518 62.2569 123.318 61.9569 120.018 60.4569C119.328 60.2133 118.709 59.8007 118.218 59.2569C117.618 58.4569 116.818 58.5569 115.918 58.8569C115.018 59.1569 114.518 59.7569 114.618 60.7569C114.92 63.1777 115.02 65.6194 114.918 68.0569C114.925 68.335 114.993 68.6083 115.118 68.8569C118.218 73.3569 119.418 78.6569 120.918 83.7569C122.118 87.6569 124.318 89.7569 128.318 90.0569C128.958 90.1079 129.594 90.2082 130.218 90.3569C131.04 90.4889 131.803 90.8644 132.41 91.4349C133.016 92.0054 133.437 92.7445 133.618 93.5569C134.318 95.6569 133.918 96.1569 131.818 96.1569H125.318C124.477 96.1994 123.652 95.9125 123.018 95.3569C122.006 94.5027 120.856 93.8265 119.618 93.3569C118.249 92.8516 117.065 91.9455 116.218 90.7569C115.047 89.1203 113.706 87.612 112.218 86.2569C109.418 83.3569 106.418 80.5569 103.818 77.5569C101.839 75.5127 100.697 72.8012 100.618 69.9569C100.618 69.0569 100.418 68.6569 99.4182 69.0569C99.1188 69.2468 98.7728 69.3506 98.4182 69.3569C95.6182 69.3569 94.2182 71.0569 93.2182 73.5569C92.3182 75.6569 91.1182 77.6569 90.0182 79.7569C89.3945 81.0714 89.0538 82.5023 89.0182 83.9569C89.0182 86.3569 89.6182 87.1569 91.8182 87.9569C93.2182 88.4569 94.5182 88.9569 95.2182 90.3569C96.0182 91.9569 95.8182 92.3569 94.1182 92.4569H87.3182C86.9262 92.4957 86.5319 92.4104 86.191 92.213C85.8501 92.0156 85.5798 91.7162 85.4182 91.3569L83.6182 88.3569C83.0876 87.5741 82.7479 86.6779 82.6264 85.7401C82.5048 84.8023 82.6048 83.849 82.9182 82.9569C83.351 81.2204 83.3852 79.4084 83.0182 77.6569C82.7662 76.437 82.7879 75.1764 83.0819 73.9659C83.3758 72.7554 83.9347 71.6252 84.7182 70.6569C85.3182 69.9569 85.3182 69.6569 84.3182 69.4569C80.2291 68.5882 76.2649 67.2108 72.5182 65.3569C72.4917 65.3569 72.4663 65.3463 72.4475 65.3276C72.4288 65.3088 72.4182 65.2834 72.4182 65.2569C69.2182 64.0569 68.6182 64.2569 67.7182 67.5569C66.9182 70.3569 66.1182 73.1569 65.5182 76.0569C64.8182 79.2569 65.6182 82.2569 66.6182 85.2569C67.0182 86.4569 68.2182 86.3569 69.1182 86.6569C71.1182 87.2569 72.8182 88.0569 73.6182 90.1569C74.3182 91.7569 74.2182 91.9569 72.5182 91.9569C70.8182 91.9569 69.1182 91.8569 67.3182 91.9569C65.7993 91.9844 64.3169 91.4902 63.1182 90.5569C58.3182 87.3569 56.9182 82.4569 56.5182 77.1569C56.3182 73.8569 54.5182 71.2569 52.4182 68.7569C52.0182 68.2569 51.6182 68.0569 51.0182 68.4569C48.8717 69.6404 46.6307 70.6439 44.3182 71.4569C39.4925 73.1608 35.2579 76.2153 32.1182 80.2569C30.9459 81.7318 30.1866 83.4919 29.9182 85.3569C29.6182 87.1569 30.1182 87.9569 31.9182 88.4569C33.7182 88.9569 34.6182 89.9569 34.8182 91.8569C34.9182 92.6569 34.6182 93.0569 33.8182 93.0569H25.7182C25.4531 93.0381 25.1965 92.9555 24.9702 92.8162C24.7438 92.6769 24.5545 92.485 24.4182 92.2569C23.1621 90.7016 22.4899 88.7558 22.5182 86.7569C22.4658 83.3018 22.7673 79.8505 23.4182 76.4569C23.5517 75.4405 23.9311 74.4721 24.5236 73.6357C25.1161 72.7992 25.9038 72.12 26.8182 71.6569C32.7182 68.8569 35.8182 63.5569 38.6182 58.0569C39.2182 56.9569 38.7182 56.7569 37.7182 56.8569C34.9196 57.2454 32.2679 58.3474 30.0182 60.0569C27.0724 62.2057 24.2975 64.5795 21.7182 67.1569C18.9679 69.9505 15.3209 71.6855 11.4182 72.0569C4.11823 72.4569 0.71823 68.3569 1.01823 61.7569C1.08529 59.5065 1.93388 57.3496 3.41823 55.6569C3.93425 54.9879 4.63796 54.4878 5.4395 54.2207C6.24103 53.9535 7.10401 53.9313 7.91823 54.1569C9.41823 54.5569 9.81823 55.3569 9.21823 56.8569C8.91823 57.4569 8.51823 57.9569 8.21823 58.5569C7.78683 59.1698 7.44975 59.844 7.21823 60.5569C6.11823 63.5569 7.61823 65.6569 10.7182 65.9569C14.0182 66.2569 16.7182 64.8569 19.2182 62.8569C22.2302 60.4451 24.9189 57.6555 27.2182 54.5569C28.9375 52.2943 31.1023 50.4081 33.5791 49.015C36.0558 47.6218 38.7918 46.7512 41.6182 46.4569C43.9182 46.1569 45.9182 45.1569 48.1182 44.5569C52.2327 43.3025 56.5172 42.6952 60.8182 42.7569C62.8103 42.8398 64.7948 42.4634 66.6182 41.6569C71.5182 39.6569 76.6182 39.6569 81.7182 40.6569C85.7182 41.4569 89.7182 42.4569 93.6182 43.4569C95.9392 43.8893 98.3257 43.8211 100.618 43.2569C105.007 42.1444 109.496 41.4744 114.018 41.2569C116.981 41.1127 119.933 41.6964 122.618 42.9569C124.618 43.8569 124.618 43.8569 124.118 45.7569Z" fill="black"></path></svg><svg viewBox="0 0 140 140" id="cat-sitting"><circle cx="70" cy="70" r="50" fill="#68B738"></circle><path d="M89.84 14H89.46C88.818 14.3629 88.307 14.9194 88 15.59C87.4377 16.6721 87.0047 17.8167 86.71 19C86.6468 19.3558 86.4671 19.6805 86.1992 19.9231C85.9313 20.1657 85.5903 20.3123 85.23 20.34C84.1279 20.53 83.0837 20.9693 82.1773 21.6244C81.2709 22.2795 80.5262 23.1331 80 24.12C79.2766 25.4013 78.6579 26.739 78.15 28.12C76.73 31.8 75.64 35.6 74.3 39.31C73.67 41 73.64 41 71.74 41C69.47 41 69.63 40.65 69.6 43.15C69.6 43.94 69.84 44.34 70.68 44.3C70.94 44.3 71.33 44.17 71.43 44.51C71.53 44.85 71.19 45 70.99 45.2C69.8043 46.4036 68.3038 47.2492 66.66 47.64C64.76 48.15 62.82 48.55 60.97 49.17C56.22 50.76 51.83 52.98 48.41 56.74C46.4103 59.0754 44.8088 61.7242 43.67 64.58C40 73.22 38.22 82.32 36.84 91.51C36.19 95.82 35.73 100.15 35.38 104.51C35.2 106.65 35 108.82 35 111H68.33C68.3854 110.56 68.3051 110.113 68.1 109.72C67.7794 108.922 67.2586 108.22 66.5877 107.683C65.9167 107.145 65.1185 106.789 64.27 106.65C63.57 106.49 63.49 106.28 63.92 105.73C64.6214 104.794 65.159 103.746 65.51 102.63C67.14 97.82 67.77 92.8 68.56 87.83C69.0063 84.0338 70.1739 80.3579 72 77C73.4244 74.5284 75.3243 72.3634 77.59 70.63C78.42 70 78.45 70 78.59 71.07C78.69 71.78 78.71 72.51 78.76 73.23C79.0601 77.9544 78.9999 82.6948 78.58 87.41C78.2024 91.0649 78.1522 94.7462 78.43 98.41C78.8275 102.664 79.5869 106.875 80.7 111H94C93.8264 109.917 93.328 108.913 92.5708 108.12C91.8136 107.327 90.8334 106.783 89.76 106.56C88.5066 106.361 87.2252 106.429 86 106.76C85.4 106.9 85.15 106.76 85.1 106.11C84.6863 100.816 85.0229 95.4899 86.1 90.29C87.4338 84.287 88.4552 78.2189 89.16 72.11C89.4224 69.643 90.1991 67.2584 91.44 65.11C92.63 62.99 93.67 60.79 94.84 58.66C95.3045 57.8855 95.5841 57.0143 95.657 56.1141C95.7298 55.2139 95.594 54.3091 95.26 53.47C94.99 52.76 94.73 52.04 94.4 51.36C93.4 49.41 92.4 47.48 91.48 45.51C90.99 44.51 91.1 44.39 92.19 44.36C93.82 44.36 93.82 44.36 93.85 42.72C93.85 42.5 93.85 42.28 93.85 42.06C93.85 41.37 93.59 40.99 92.85 41.06C92.35 41.06 91.85 41.06 91.33 41.06C90.64 41.06 90.44 40.77 90.61 40.06C90.9473 38.9058 91.611 37.8737 92.5211 37.0877C93.4312 36.3018 94.549 35.7956 95.74 35.63C97.9557 35.4379 100.188 35.5829 102.36 36.06C102.611 36.139 102.882 36.1161 103.116 35.9963C103.35 35.8766 103.528 35.6695 103.61 35.42C104.01 34.42 104.45 33.42 104.9 32.42C105.002 32.2426 105.047 32.0381 105.029 31.8343C105.011 31.6304 104.931 31.437 104.8 31.28C101.6 27.22 98.13 23.43 93.4 21C93.1715 20.9016 92.9712 20.7476 92.8175 20.552C92.6638 20.3563 92.5615 20.1253 92.52 19.88C92.2523 18.4505 91.8264 17.0553 91.25 15.72C90.9795 15.0086 90.4845 14.4048 89.84 14V14Z" fill="black"></path></svg><svg viewBox="0 0 26 30" fill="none" id="cutlery"><path fill-rule="evenodd" clip-rule="evenodd" d="M19.12.08a1 1 0 0 1 1.09.21c.9.91 2.1 2.88 3.06 5.92a42.6 42.6 0 0 1 1.73 12.79 1 1 0 0 1-1 1h-3.5v9a1 1 0 1 1-2 0v-28a1 1 0 0 1 .62-.92Zm1.38 17.92h2.5a39.62 39.62 0 0 0-1.64-11.19 22.4 22.4 0 0 0-.86-2.3v13.49Zm-14-18a1 1 0 0 1 1 1v28a1 1 0 1 1-2 0v-28a1 1 0 0 1 1-1Z" fill="#fff"></path><path fill-rule="evenodd" clip-rule="evenodd" d="M2 0a1 1 0 0 1 1 1v5.5c0 .56.2 1.32.7 1.92.48.56 1.31 1.08 2.8 1.08a1 1 0 1 1 0 2 5.41 5.41 0 0 1-4.33-1.8 5.07 5.07 0 0 1-1.17-3.2v-5.5a1 1 0 0 1 1-1Z" fill="#fff"></path><path fill-rule="evenodd" clip-rule="evenodd" d="M11 0a1 1 0 0 0-1 1v5.5c0 .56-.2 1.32-.7 1.92-.48.56-1.31 1.08-2.8 1.08a1 1 0 0 0 0 2 5.4 5.4 0 0 0 4.33-1.8 5.07 5.07 0 0 0 1.17-3.2v-5.5a1 1 0 0 0-1-1Z" fill="#fff"></path></svg><svg viewBox="0 0 20 20" fill="none" id="email"><path d="M1.5 8.5v8h17v-8m-17-5h17v2l-8.5 6-8.5-6v-2Z" stroke="#000" stroke-linecap="round" stroke-linejoin="round"></path></svg><svg viewBox="0 0 78 81" fill="none" id="gift"><path d="M64.02 35.63h-49.99a3.18 3.18 0 0 1-3.18-3.16v-9.47a3.18 3.18 0 0 1 3.18-3.16h49.98a3.17 3.17 0 0 1 3.19 3.16v9.47a3.17 3.17 0 0 1-3.18 3.16Zm-49.99-13.37c-.4 0-.74.34-.74.74v9.47c0 .4.33.74.74.74h49.98c.41 0 .75-.33.75-.74v-9.47c0-.4-.34-.74-.75-.74h-49.98Z" fill="#fff"></path><path d="M57.04 68.08h-36.04a6.11 6.11 0 0 1-6.13-6.09v-27.57c0-.67.55-1.21 1.22-1.21.68 0 1.22.54 1.22 1.21v27.57a3.68 3.68 0 0 0 3.69 3.67h36.04a3.68 3.68 0 0 0 3.7-3.67v-27.57a1.22 1.22 0 0 1 2.44 0v27.57a6.11 6.11 0 0 1-6.14 6.1Z" fill="#fff"></path><path d="M39.02 68.08c-.67 0-1.22-.54-1.22-1.2v-32.46c0-.67.55-1.21 1.22-1.21.68 0 1.22.54 1.22 1.21v32.45c0 .67-.54 1.21-1.22 1.21Zm-15.21-45.82a7.81 7.81 0 0 1-3.17-10.6 7.9 7.9 0 0 1 10.66-3.16c5.82 3.13 8.96 11.86 9.09 12.23l-2.3.8c-.03-.08-2.96-8.22-7.95-10.9a5.45 5.45 0 0 0-7.36 2.17 5.4 5.4 0 0 0 2.2 7.33l-1.17 2.13Z" fill="#fff"></path><path d="m54.23 22.26-1.16-2.14a5.38 5.38 0 0 0-1.03-9.92 5.42 5.42 0 0 0-4.14.43c-4.98 2.68-7.91 10.82-7.94 10.9l-2.3-.8c.13-.37 3.27-9.1 9.08-12.23a7.86 7.86 0 0 1 11.29 9.1c-.6 2-1.95 3.66-3.8 4.66Zm7.72 29.6h-45.86c-.67 0-1.22-.55-1.22-1.21 0-.67.55-1.22 1.22-1.22h45.86a1.21 1.21 0 1 1 0 2.42Z" fill="#fff"></path></svg><svg viewBox="0 0 27 34" fill="none" id="html-academy"><path d="m13.64.02-.14-.02-13.5 1.4v24.61l13.5 7.99 13.5-7.99v-24.6l-13.36-1.4Zm11.6 25-11.74 6.94-11.73-6.94v-10.1l11.68 6.93.02 1.25-8.02-4.75v1.23l8.04 4.8.02 1.3-8.05-4.76v1.22l8.04 4.81 8.12-4.83v-5.21l3.62-2.15v10.26Zm0-11.57-3.23 1.88-1.48.88-7.06-4.19-.01 1.23 6.04 3.57-.06.03-.13.07-.86.5-4.98-2.95-.01 1.22 3.93 2.33-.93.61-.02.01-2.97-1.74-.01 1.23 1.94 1.13-1.98 1.19-11.62-6.87 11.63-6.96 11.8 6.83Zm0-1.22-11.8-6.92-11.67 6.91v-9.23l11.73-1.23 11.73 1.23v9.24Z" fill="#666"></path></svg><svg viewBox="0 0 25 28" fill="none" id="leaf"><path d="M24.84.77a.95.95 0 0 0-.9-.77h-.01c-4.94.03-16.95.92-21.8 8.38-2.51 3.88-2.73 8.91-.64 14.96l.07.13a25.93 25.93 0 0 0-1.04 3.32 1 1 0 0 0 .72 1.19l.2.02c.43 0 .81-.32.9-.79.03-.1 2.42-10.37 10.86-16.38.43-.3.55-.93.26-1.38a.9.9 0 0 0-1.3-.28c-4.79 3.4-7.74 8-9.47 11.65-1.24-4.57-.92-8.37.99-11.3 3.74-5.76 12.62-7.15 17.98-7.45-1.16 1.8-2.41 5.1-2.41 10.93 0 3.12-.83 5.52-2.47 7.14-2.62 2.6-6.88 2.83-10 2.58-.51-.04-.96.38-1 .93-.04.55.35 1.03.86 1.07.63.05 1.3.08 1.99.08 3.17 0 6.86-.66 9.42-3.2 2.04-2 3.07-4.9 3.07-8.6 0-9.1 3.22-11.1 3.23-11.1.4-.21.6-.68.5-1.13Z" fill="#fff"></path></svg><svg viewBox="0 0 101 18" fill="none" id="logo-cat-energy"><g clip-path="url(#logo-cat-energy_0)" fill="#111"><path d="M1.26 16.54a6.86 6.86 0 0 1-1.26-4.3v-6.4c-.1-1.54.3-3.08 1.19-4.38.86-1 2.2-1.46 4.18-1.46 1.98 0 3.24.46 4.03 1.3a5.42 5.42 0 0 1 1.19 3.78v1.54h-3.87v-1.77a3.7 3.7 0 0 0-.24-1.54 1.16 1.16 0 0 0-1.1-.62c-.56 0-.95.16-1.11.54a4.85 4.85 0 0 0-.24 1.7v8.22c-.04.56.07 1.12.32 1.62.15.38.55.54 1.1.54.56 0 .87-.16 1.03-.54.18-.52.26-1.07.24-1.62v-1.84h3.87v1.54a5.77 5.77 0 0 1-1.19 3.84c-.79.93-2.13 1.39-4.03 1.39-1.9-.08-3.32-.54-4.1-1.54Zm13.99-16.31h4.5l3.33 17.54h-3.64l-.63-3.7h-2.6l-.64 3.7h-3.72l3.4-17.54Zm3.24 11.54-.95-6.85-.94 6.85h1.9Zm7.35-8.62h-2.68v-2.92h9.4v2.85h-2.69v14.69h-4.03v-14.62Zm13.91-2.92h6.96v1.85h-4.5v5.77h3.63v1.77h-3.64v6.46h4.5v1.77h-7.03v-17.62h.08Zm9.01 0h1.74l5.14 11.62v-11.62h2.05v17.54h-1.58l-5.21-12v12h-2.14v-17.54Zm11.3 0h6.96v1.85h-4.5v5.77h3.63v1.77h-3.64v6.46h4.5v1.77h-6.95v-17.62Zm9.01 0h3.64c1.43-.1 2.85.28 4.03 1.08.87.69 1.26 1.92 1.26 3.54 0 2.23-.7 3.61-2.21 4.07l2.53 8.77h-2.45l-2.37-8.23h-1.98v8.23h-2.53v-17.46h.08Zm3.48 7.54c.81.06 1.63-.15 2.3-.62.47-.38.7-1.15.7-2.3a4.85 4.85 0 0 0-.23-1.7 2.04 2.04 0 0 0-.87-.92 3.69 3.69 0 0 0-1.74-.3h-1.1v5.76h.94v.08Zm8.61 8.69a7.61 7.61 0 0 1-1.1-4.46v-5.85c-.02-1.11.11-2.22.4-3.3.26-.81.78-1.51 1.5-2 .88-.51 1.9-.75 2.92-.7 1.66 0 2.84.39 3.55 1.23a5.77 5.77 0 0 1 1.11 3.85v.62h-2.37v-.54c0-.65-.05-1.29-.16-1.93-.06-.4-.3-.76-.63-1a2.5 2.5 0 0 0-1.5-.38 2.42 2.42 0 0 0-1.58.46 1.75 1.75 0 0 0-.63 1.23c-.1.69-.16 1.38-.16 2.08v6.54c-.06 1 .1 2 .47 2.92.32.62.95.85 1.9.85a1.96 1.96 0 0 0 1.89-.93 6.9 6.9 0 0 0 .56-3.07v-1.23h-2.3v-1.77h4.59v8.69h-1.58l-.24-2c-.2.67-.64 1.25-1.22 1.66-.6.4-1.3.6-2.02.57a4.05 4.05 0 0 1-3.4-1.54Zm13.52-4.84-3.87-11.31h2.37l2.76 8.46 2.69-8.46h2.37l-3.87 11.3v6.16h-2.37v-6.15h-.08Z"></path></g><defs><clipPath id="logo-cat-energy_0"><path fill="#fff" d="M0 0h101v18h-101z"></path></clipPath></defs></svg><svg viewBox="0 0 20 20" fill="none" id="phone"><path d="M10 10h8.5m0 0-2.5-2.5m2.5 2.5-2.5 2.5m-7.5-10v5h-3v5h3v5h-2.5c-1.5 0-2.5-1-2.5-2.5v-10c0-1.5 1-2.5 2.5-2.5h2.5Z" stroke="#000" stroke-linecap="round" stroke-linejoin="round"></path></svg><svg viewBox="0 0 27 29" fill="none" id="powder"><path d="M11.38 0c-1.64 0-2.9 1.36-2.9 3.08s1.26 3.08 2.9 3.08c1.63 0 2.9-1.36 2.9-3.08s-1.27-3.08-2.9-3.08Zm0 1.18c1 0 1.72.84 1.72 1.9 0 1-.8 1.9-1.72 1.9-1 0-1.73-.84-1.73-1.9 0-1 .78-1.9 1.72-1.9Zm-10.88 23.56c0 1.18.4 2.18 1.36 3 1 .84 2.17.77 2.17.77h19.04c.77 0 1.8-.38 2.62-1.45.85-1 .8-2.36.8-2.36v-17.21c0-.44-.12-.6-.75-.6-.64 0-.69.27-.69.59v17.22c-.02.3-.07 1.08-.74 1.72-.74.62-1.45.54-1.45.54s-18.13 0-19.03-.03a2.14 2.14 0 0 1-1.45-.9c-.51-.73-.41-1.63-.41-1.63v-17.22c0-.46-.24-.64-.73-.64s-.74.18-.74.58v17.62Zm16.31-16.31c-1.08.23-2.17.38-4.26 2.35-2.08 2-3.62 1.9-5.16 1.82-1.54-.1-3.17-1.54-3.45-1.9-.33-.36-.9-.12-1.08.11-.16.24-.16.64.1 1 1.27 1.18 2.45 2.08 4.72 2.26a7.5 7.5 0 0 0 5.89-2.26c1.45-1.45 2.17-1.72 3.26-1.9a6.3 6.3 0 0 1 5.08 1.26c1 1.1 1.26.78 1.54.48.54-.72-.23-1.27-1.1-1.9a7.24 7.24 0 0 0-5.52-1.28l-.02-.04Zm-9.06 7.16c-1.18 0-2.08 1-2.08 2.26 0 1.27.9 2.27 2.08 2.27 1.18 0 2.08-1 2.08-2.27s-.9-2.26-2.08-2.26Zm11.78.78c-1.54 0-2.8 1.36-2.8 2.99 0 1.63 1.26 2.99 2.8 2.99 1.54 0 2.81-1.36 2.81-3 0-1.62-1.27-2.98-2.8-2.98Zm0 1.45c.8 0 1.45.7 1.45 1.54a1.5 1.5 0 0 1-1.45 1.54c-.8 0-1.45-.7-1.45-1.54 0-.86.65-1.54 1.45-1.54Z" fill="#fff"></path></svg><svg viewBox="0 0 20 18" id="telegram"><path fill-rule="evenodd" clip-rule="evenodd" d="M19.46.15c.18.15.27.38.23.61l-2.63 15.76a.66.66 0 0 1-1.01.44l-7.88-5.25a.66.66 0 0 1-.15-.96l2.61-3.26-4.36 2.9a.66.66 0 0 1-.65.05l-5.26-2.63a.66.66 0 0 1 .08-1.2l18.38-6.57a.66.66 0 0 1 .64.11Zm-17.13 7.17 3.53 1.77 7.56-5.04a.66.66 0 0 1 .88.96l-4.8 6 6.43 4.3 2.28-13.66-15.88 5.67Z" fill="#666"></path></svg><svg viewBox="0 0 27 17" fill="none" id="vk"><path d="M0 2.34c0-.86.52-1.32 1.55-1.38l3.97.02c.26 0 .44.13.53.38.4 1.26.86 2.34 1.37 3.25.5.92 1.17 1.97 1.99 3.16.07.15.18.23.34.23.13 0 .22-.06.3-.18l.07-.28.03-4.35c0-.3-.07-.5-.23-.6-.15-.1-.43-.18-.83-.23-.32-.05-.48-.23-.48-.55 0-.07 0-.12.02-.15.38-1.09 1.44-1.63 3.2-1.63l1.5-.03c.67 0 1.23.16 1.67.48.44.32.67.82.67 1.5v5.72c.12.08.24.12.34.12.27 0 .5-.15.7-.45 1.95-2.58 3-4.31 3.17-5.18a.3.3 0 0 1 .05-.13c.12-.25.33-.47.61-.65.29-.19.53-.31.75-.38a.55.55 0 0 1 .24-.05h4.13l.26.03c.36 0 .63.16.83.47.07.1.12.21.15.33a2.4 2.4 0 0 1 .06.55v.18a6.11 6.11 0 0 1-.94 2.2 23.4 23.4 0 0 1-1.93 2.53c-.79.9-1.27 1.5-1.47 1.78a.93.93 0 0 0-.24.56c0 .13.07.28.21.45l3.9 4.63c.2.26.31.56.31.88 0 .38-.16.7-.48.95-.32.25-.7.4-1.14.43l-.46.02h-4.04c-.02 0-.06 0-.11.02a.86.86 0 0 1-.1.01c-.4 0-.76-.16-1.1-.48-.12-.13-.96-1.12-2.5-2.97a1.39 1.39 0 0 0-.38-.32 38.47 38.47 0 0 0-.53 2.24l-.08.42a1.4 1.4 0 0 1-1.12 1.06l-.37.02h-2.61c-1.48 0-2.95-.63-4.41-1.9a19.3 19.3 0 0 1-3.96-4.95 47.51 47.51 0 0 1-3.28-7.05 1.92 1.92 0 0 1-.13-.73Zm16.01 6.51c-.37 0-.7-.1-1.01-.29a.9.9 0 0 1-.45-.79v-5.78c0-.34-.1-.58-.27-.72-.18-.14-.49-.21-.93-.21l-1.52.05c-.76 0-1.34.12-1.73.37.78.36 1.17.93 1.17 1.71v4.43a1.5 1.5 0 0 1-.53 1.04 1.6 1.6 0 0 1-1.07.42c-.53 0-.94-.24-1.22-.73a26.16 26.16 0 0 1-3.1-5.63l-.23-.66-3.55-.02c-.23 0-.36.01-.38.03-.03.03-.04.1-.04.22 0 .15.01.3.05.48l.56 1.4c1.49 3.64 3.11 6.51 4.86 8.6 1.75 2.1 3.47 3.15 5.16 3.15h2.66c.1 0 .19-.03.24-.09.05-.06.1-.17.13-.34l.06-.25.5-2.21c.15-.3.27-.5.38-.6.2-.2.42-.28.69-.28.43 0 .86.24 1.3.73l2.27 2.71c.14.22.3.33.45.33h4.4c.53 0 .8-.13.8-.38a.47.47 0 0 0-.08-.25l-3.87-4.55c-.3-.35-.45-.73-.45-1.13 0-.4.14-.8.43-1.16.23-.34.68-.9 1.34-1.67.67-.78 1.25-1.51 1.75-2.19.5-.68.82-1.3.98-1.85l.08-.33a.37.37 0 0 1-.02-.16.54.54 0 0 0-.03-.19h-4.18c-.27.1-.48.25-.64.45l-.16.48c-.45 1.16-1.6 2.94-3.5 5.36-.36.33-.8.5-1.3.5Z" fill="#666"></path></svg><svg viewBox="0 0 24 19" id="youtube"><path d="m15.85 8.8-5.24-3.5a.65.65 0 0 0-1.01.55v6.98a.65.65 0 0 0 1.01.54l5.24-3.49a.65.65 0 0 0 0-1.09Zm-4.94 2.8v-4.53l3.4 2.27-3.4 2.27Zm12.48-8.56a2.4 2.4 0 0 0-1.45-1.63c-3.72-1.43-9.69-1.41-9.94-1.41s-6.22-.02-9.94 1.4a2.4 2.4 0 0 0-1.45 1.64 25.32 25.32 0 0 0-.61 6.3c0 3.26.33 5.22.61 6.3a2.4 2.4 0 0 0 1.45 1.63c3.72 1.43 9.69 1.4 9.94 1.4h.08c.75 0 6.31-.04 9.86-1.4a2.4 2.4 0 0 0 1.45-1.64c.28-1.07.61-3.03.61-6.3 0-3.25-.33-5.22-.61-6.29Zm-1.27 12.27a1.1 1.1 0 0 1-.65.74c-3.5 1.34-9.4 1.32-9.47 1.32-.07 0-5.98.02-9.47-1.32a1.09 1.09 0 0 1-.65-.74c-.27-1-.57-2.85-.57-5.97 0-3.12.3-4.97.57-5.97a1.1 1.1 0 0 1 .65-.74c3.5-1.34 9.4-1.32 9.47-1.32.07 0 5.98-.02 9.47 1.32a1.1 1.1 0 0 1 .65.74c.27 1 .57 2.85.57 5.97 0 3.12-.3 4.96-.57 5.97Z" fill="#666"></path></svg></svg>