<svg xmlns="http://www.w3.org/2000/svg" viewBox="0 0 40 40"><path fill="#fff" d="M26.62 5.08a1 1 0 0 1 1.09.21c.9.91 2.1 2.88 3.06 5.92a42.6 42.6 0 0 1 1.73 12.79 1 1 0 0 1-1 1h-3.5v9a1 1 0 1 1-2 0v-28a1 1 0 0 1 .62-.92Zm1.38 17.92h2.5a39.62 39.62 0 0 0-1.64-11.19 22.4 22.4 0 0 0-.86-2.3v13.49Zm-18.5-18a1 1 0 0 1 1 1v5.5c0 .56.2 1.32.7 1.92.36.42.92.82 1.8.99v-8.41a1 1 0 1 1 2 0v8.41a3.02 3.02 0 0 0 1.8-1c.5-.6.7-1.35.7-1.91v-5.5a1 1 0 1 1 2 0v5.5c0 .94-.3 2.18-1.17 3.2a5.1 5.1 0 0 1-3.33 1.74v17.56a1 1 0 1 1-2 0v-17.56a5.11 5.11 0 0 1-3.33-1.73 5.07 5.07 0 0 1-1.17-3.21v-5.5a1 1 0 0 1 1-1Z"/></svg>