<svg xmlns="http://www.w3.org/2000/svg" viewBox="0 0 80 80"><path fill="#fff" d="M57.95 18.84h7.06a3.17 3.17 0 0 1 3.19 3.16v9.47a3.17 3.17 0 0 1-3.18 3.16h-.85v26.36a6.11 6.11 0 0 1-6.13 6.1h-36.04a6.11 6.11 0 0 1-6.13-6.1v-26.36h-.84a3.18 3.18 0 0 1-3.18-3.16v-9.47a3.18 3.18 0 0 1 3.18-3.16h7.07a7.8 7.8 0 0 1-.46-8.19 7.9 7.9 0 0 1 10.66-3.15c3.67 1.97 6.27 6.16 7.72 9.1 1.46-2.94 4.06-7.13 7.72-9.1a7.86 7.86 0 0 1 10.21 11.34zm-32.45 0h12.89c-1.15-2.56-3.67-7.29-7.25-9.21a5.45 5.45 0 0 0-7.36 2.17 5.39 5.39 0 0 0 1.72 7.04zm29.05 0a5.37 5.37 0 0 0 1.71-7.03 5.42 5.42 0 0 0-7.36-2.18c-3.57 1.92-6.09 6.65-7.24 9.2Zm-32.55 45.82h16.8v-13.8h-20.49v10.13a3.68 3.68 0 0 0 3.69 3.67zm39.73-3.67v-10.13h-20.49v13.8h16.8a3.68 3.68 0 0 0 3.7-3.67zm-20.49-26.36v13.8h20.5v-13.8Zm-2.44 13.8v-13.8h-20.49v13.8Zm-21.67-16.22h22.86a1.02 1.02 0 0 1 .07 0h22.85a1.03 1.03 0 0 1 .07 0h2.03c.41 0 .75-.33.75-.74v-9.47c0-.4-.34-.74-.75-.74h-49.98c-.4 0-.74.34-.74.74v9.47c0 .4.33.74.74.74h2.1z"/></svg>